<?xml version="1.0" encoding="iso-8859-1"?>
<!-- Generator: Adobe Illustrator 19.1.0, SVG Export Plug-In . SVG Version: 6.00 Build 0)  -->
<svg xmlns="http://www.w3.org/2000/svg" xmlns:xlink="http://www.w3.org/1999/xlink" version="1.1" id="Capa_1" x="0px" y="0px" viewBox="0 0 513.32 513.32" style="enable-background:new 0 0 513.32 513.32;" xml:space="preserve" width="512px" height="512px">
<g>
	<g>
		<g>
			<polygon points="220.3,370.018 250.244,399.962 393.545,256.66 250.244,113.358 220.3,143.302 312.27,235.272 0,235.272      0,278.048 312.27,278.048    " fill="#000000"/>
			<path d="M278.048,21.388c-100.525,0-183.94,64.165-218.161,149.718h47.055c29.944-64.165,96.247-106.942,171.107-106.942     c106.942,0,192.495,85.553,192.495,192.495S384.99,449.155,278.048,449.155c-74.859,0-141.163-42.777-171.107-106.942H59.887     c34.221,85.553,119.775,149.718,218.161,149.718c130.469,0,235.272-104.803,235.272-235.272S408.517,21.389,278.048,21.388     L278.048,21.388z" fill="#000000"/>
		</g>
	</g>
</g>
<g>
</g>
<g>
</g>
<g>
</g>
<g>
</g>
<g>
</g>
<g>
</g>
<g>
</g>
<g>
</g>
<g>
</g>
<g>
</g>
<g>
</g>
<g>
</g>
<g>
</g>
<g>
</g>
<g>
</g>
</svg>
