<?xml version="1.0" encoding="utf-8"?>
<!-- Generator: Adobe Illustrator 16.0.0, SVG Export Plug-In . SVG Version: 6.00 Build 0)  -->
<!DOCTYPE svg PUBLIC "-//W3C//DTD SVG 1.1//EN" "http://www.w3.org/Graphics/SVG/1.1/DTD/svg11.dtd">
<svg xmlns="http://www.w3.org/2000/svg" xmlns:xlink="http://www.w3.org/1999/xlink" version="1.1" id="Layer_1" x="0px" y="0px" width="512px" height="512px" viewBox="0 0 512 512" enable-background="new 0 0 512 512" xml:space="preserve">
<g>
	<path d="M478.582,309.137l-31.117-17.994c2.074-11.406,3.307-23.121,3.307-35.143c0-12.025-1.233-23.721-3.307-35.129l31.1-17.961   c13.778-7.965,18.499-25.57,10.53-39.344l-36.457-63.197c-7.951-13.773-25.569-18.494-39.344-10.543l-31.117,17.943   c-17.817-15.139-38.404-27.078-60.879-35.143V36.721c0-15.914-12.911-28.813-28.813-28.813h-72.932   c-15.916,0-28.8,12.898-28.8,28.813v35.906c-22.565,8.064-43.125,20.004-60.938,35.143L98.743,89.807   c-6.618-3.813-14.488-4.846-21.852-2.867c-7.399,1.979-13.697,6.799-17.51,13.416l-36.489,63.197   c-3.827,6.617-4.866,14.488-2.887,21.869c1.979,7.363,6.813,13.662,13.435,17.488l31.117,17.961   c-2.092,11.408-3.343,23.104-3.343,35.129c0,12.021,1.251,23.736,3.343,35.156l-31.117,17.98   c-13.792,7.951-18.499,25.568-10.548,39.361l36.475,63.178c3.826,6.619,10.124,11.439,17.523,13.418   c7.364,1.979,15.233,0.939,21.852-2.887l31.104-17.98c17.813,15.139,38.354,27.064,60.906,35.08v35.969   c0,15.92,12.884,28.816,28.8,28.816h72.932c15.902,0,28.813-12.896,28.813-28.816v-35.969c22.475-8.016,43.062-19.941,60.861-35.08   l31.135,17.98c13.774,7.951,31.393,3.225,39.344-10.563l36.475-63.164C497.063,334.705,492.343,317.088,478.582,309.137z    M256.01,389.414c-73.691,0-133.414-59.723-133.414-133.414c0-73.678,59.723-133.4,133.414-133.4   c73.663,0,133.399,59.723,133.399,133.4C389.409,329.691,329.673,389.414,256.01,389.414z" fill="#000000"/>
	<path d="M327.496,184.514c-9.18-9.166-24.043-9.166-33.195,0l-38.291,38.305l-38.291-38.305c-9.148-9.166-24.029-9.166-33.195,0   c-9.148,9.166-9.148,24.012,0,33.178L222.832,256l-38.309,38.322c-9.148,9.166-9.148,24.012,0,33.178   c4.576,4.576,10.598,6.867,16.598,6.867c6.004,0,12.025-2.291,16.598-6.867l38.291-38.305l38.291,38.305   c4.576,4.576,10.58,6.867,16.584,6.867c6.018,0,12.021-2.291,16.611-6.867c9.152-9.166,9.152-24.012,0-33.178L289.173,256   l38.323-38.309C336.648,208.525,336.648,193.68,327.496,184.514z" fill="#000000"/>
</g>
</svg>
